<?xml version="1.0" standalone="no"?>
<!DOCTYPE svg PUBLIC "-//W3C//DTD SVG 20010904//EN"
 "http://www.w3.org/TR/2001/REC-SVG-20010904/DTD/svg10.dtd">
<svg version="1.0" xmlns="http://www.w3.org/2000/svg"
 width="414.000000pt" height="466.000000pt" viewBox="0 0 414.000000 466.000000"
 preserveAspectRatio="xMidYMid meet">
<metadata>
Created by Andrius SimanaviÄius
</metadata>
<g transform="translate(0.000000,466.000000) scale(0.100000,-0.100000)"
fill="#ffffff" stroke="none">
<path d="M1030 4081 l-1025 -579 0 -652 0 -652 715 -407 c393 -224 1057 -602
1475 -841 418 -238 765 -433 770 -433 6 0 272 148 593 329 l582 329 -2 1163
-3 1163 -1020 576 c-561 317 -1029 578 -1040 580 -13 2 -401 -212 -1045 -576z
m2031 -78 l989 -558 -3 -1115 -2 -1114 -510 -288 c-280 -158 -521 -294 -535
-302 -24 -14 -47 -2 -660 347 l-635 362 245 3 245 2 -7 218 c-13 360 -38 1117
-49 1457 -6 176 -12 326 -14 333 -3 9 -84 12 -359 12 l-354 0 -6 -47 c-4 -27
-18 -115 -31 -198 -14 -82 -38 -235 -55 -340 -54 -336 -82 -500 -87 -507 -2
-5 -10 -8 -17 -8 -16 0 -24 41 -91 467 -8 51 -35 212 -60 358 -25 147 -45 268
-45 271 0 2 -163 3 -362 2 l-363 -3 -11 -365 c-22 -680 -27 -811 -36 -816 -4
-3 -42 14 -83 37 l-75 43 0 596 0 596 988 557 c543 306 989 557 991 557 2 0
449 -251 992 -557z m-2296 -1620 c6 -17 15 -66 75 -426 12 -71 20 -131 17
-133 -2 -2 -34 13 -70 33 l-67 38 0 246 c0 135 3 249 7 252 12 13 31 7 38 -10z
m923 -511 c1 -287 -1 -522 -4 -522 -6 0 -181 97 -193 106 -4 3 23 164 73 439
13 72 38 209 55 305 36 200 37 203 54 197 9 -3 13 -119 15 -525z"/>
<path d="M2477 3353 c-4 -3 -7 -458 -7 -1010 l0 -1005 423 4 422 4 89 28 c158
49 277 125 359 231 233 300 278 993 90 1382 -110 227 -279 331 -592 363 -112
11 -774 14 -784 3z m749 -498 c90 -27 144 -109 166 -254 7 -42 11 -166 11
-276 -2 -428 -58 -524 -310 -525 l-73 0 0 535 0 535 78 0 c43 0 101 -7 128
-15z"/>
<path d="M0 1537 l0 -374 548 -309 c301 -169 765 -431 1032 -582 l485 -273 48
22 c27 13 51 28 55 34 4 7 128 80 275 163 260 146 268 151 245 165 -38 24
-2680 1527 -2684 1527 -2 0 -4 -168 -4 -373z m170 175 l65 -38 -4 -167 -3
-167 245 0 246 0 3 28 c3 29 9 26 901 -483 495 -281 899 -516 899 -520 0 -5
-102 -66 -227 -136 l-226 -128 -989 557 -989 557 -1 268 c0 147 3 267 8 267 4
0 36 -17 72 -38z"/>
</g>
</svg>
